<?xml version="1.0" encoding="utf-8"?>
<!-- Generator: Adobe Illustrator 21.0.0, SVG Export Plug-In . SVG Version: 6.00 Build 0)  -->
<svg version="1.1" id="Layer_1" xmlns="http://www.w3.org/2000/svg" xmlns:xlink="http://www.w3.org/1999/xlink" x="0px" y="0px"
	 viewBox="0 0 177 66" style="enable-background:new 0 0 177 66;" xml:space="preserve">
<style type="text/css">
	.st0{fill:#9A732B;}
</style>
<g>
	<g>
		<g>
			<path class="st0" d="M73,17.9c0.9,0.5,1.6,1.2,2.2,2.1l-1.8,1.4c-0.9-1.3-2-2-3.4-2c-0.7,0-1.3,0.2-1.8,0.5
				c-0.5,0.3-0.7,0.8-0.7,1.5c0,0.6,0.2,1,0.5,1.3c0.3,0.3,0.9,0.6,1.8,1l1.8,0.8c1.3,0.6,2.3,1.3,2.9,2c0.6,0.7,1,1.6,1,2.7
				c0,1.4-0.5,2.6-1.5,3.4c-1,0.9-2.3,1.3-3.9,1.3c-1.3,0-2.5-0.3-3.6-0.9c-1.1-0.6-1.9-1.5-2.5-2.6l1.9-1.4
				c1.2,1.7,2.6,2.6,4.3,2.6c0.8,0,1.5-0.2,2-0.6c0.5-0.4,0.8-1,0.8-1.7c0-0.6-0.2-1-0.6-1.4c-0.4-0.3-1-0.7-1.8-1.1L68.5,26
				c-1.2-0.5-2.1-1.2-2.8-1.9c-0.7-0.7-1-1.6-1-2.6c0-1.3,0.5-2.4,1.5-3.2c1-0.8,2.2-1.2,3.7-1.2C71,17.1,72.1,17.3,73,17.9"/>
			<path class="st0" d="M88,30.9h-7.3l-1.2,2.7h-2.8l7.2-16.6h0.9L92,33.7h-2.8L88,30.9z M84.3,21.9l-2.7,6.8H87L84.3,21.9z"/>
			<polygon class="st0" points="109.6,17.1 109.6,33.7 107,33.7 107,23.4 102.3,29.6 101.5,29.6 96.8,23.4 96.8,33.7 94.1,33.7 
				94.1,17.1 95,17.1 101.9,26.2 108.8,17.1 			"/>
			<rect x="114.7" y="17.3" class="st0" width="2.6" height="16.3"/>
			<path class="st0" d="M132.6,33.7l-4.7-6.3h-3v6.3h-2.6V17.3h6c1.6,0,3,0.5,4,1.4c1,0.9,1.5,2.1,1.5,3.6c0,1.1-0.3,2-0.8,2.8
				c-0.6,0.8-1.3,1.4-2.3,1.8l4.9,6.7H132.6z M125,25h3.3c0.9,0,1.6-0.2,2.1-0.7c0.5-0.5,0.8-1.1,0.8-1.9c0-0.8-0.3-1.5-0.8-2
				c-0.5-0.5-1.2-0.7-2.1-0.7H125V25z"/>
			<path class="st0" d="M148,30.9h-7.3l-1.2,2.7h-2.8l7.2-16.6h0.9l7.2,16.6h-2.8L148,30.9z M144.3,21.9l-2.7,6.8h5.4L144.3,21.9z"
				/>
		</g>
		<g>
			<polygon class="st0" points="74.9,41.2 66.8,41.2 66.8,45.4 72.9,45.4 72.9,47.7 66.8,47.7 66.8,52.9 75.2,52.9 75.2,55.2 
				64.2,55.2 64.2,38.9 74.9,38.9 			"/>
			<path class="st0" d="M90.7,47.9c0.5,0.7,0.8,1.6,0.8,2.6c0,1.4-0.5,2.5-1.5,3.4c-1,0.9-2.3,1.3-3.8,1.3h-7V38.9h5.7
				c1.5,0,2.7,0.4,3.6,1.2c0.9,0.8,1.3,1.9,1.3,3.1c0,1.3-0.5,2.3-1.4,3.1C89.4,46.6,90.1,47.1,90.7,47.9 M81.7,41.2v4.4h2.9
				c0.8,0,1.4-0.2,1.9-0.6c0.4-0.4,0.7-0.9,0.7-1.6s-0.2-1.2-0.7-1.6c-0.4-0.4-1.1-0.6-1.9-0.6H81.7z M88.1,52.2
				c0.5-0.5,0.8-1.1,0.8-1.8c0-0.8-0.3-1.4-0.8-1.9c-0.5-0.5-1.2-0.7-2.1-0.7h-4.2v5.1h4.2C86.9,52.9,87.6,52.7,88.1,52.2"/>
			<path class="st0" d="M105.7,55.2l-4.7-6.3h-3v6.3h-2.6V38.9h6c1.6,0,3,0.5,4,1.4c1,0.9,1.5,2.1,1.5,3.6c0,1.1-0.3,2-0.8,2.8
				c-0.6,0.8-1.3,1.4-2.3,1.8l4.9,6.7H105.7z M98,46.6h3.3c0.9,0,1.6-0.2,2.1-0.7c0.5-0.5,0.8-1.1,0.8-1.9c0-0.8-0.3-1.5-0.8-2
				c-0.5-0.5-1.2-0.7-2.1-0.7H98V46.6z"/>
			<path class="st0" d="M121,52.5h-7.3l-1.2,2.7h-2.8l7.2-16.6h0.9l7.2,16.6h-2.8L121,52.5z M117.4,43.5l-2.7,6.8h5.4L117.4,43.5z"
				/>
			<polygon class="st0" points="139.9,55.2 137.3,55.2 137.3,47.7 129.1,47.7 129.1,55.2 126.5,55.2 126.5,38.9 129.1,38.9 
				129.1,45.4 137.3,45.4 137.3,38.9 139.9,38.9 			"/>
			<polygon class="st0" points="169.1,38.6 169.1,55.2 166.5,55.2 166.5,45 161.8,51.1 160.9,51.1 156.2,45 156.2,55.2 153.6,55.2 
				153.6,38.6 154.5,38.6 161.3,47.7 168.2,38.6 			"/>
			<rect x="174.1" y="38.9" class="st0" width="2.6" height="16.3"/>
			<rect x="145.4" y="38.9" class="st0" width="2.6" height="16.3"/>
		</g>
	</g>
	<g>
		<path class="st0" d="M31.5,38.9l6-0.2C37.5,38.7,34.1,34.1,31.5,38.9z"/>
		<path class="st0" d="M10.2,38.9l6-0.2C16.2,38.7,12.8,34.1,10.2,38.9z"/>
		<path class="st0" d="M46.9,38.3l0-33.7c0-0.1,0-0.3,0-0.5c-0.2-1.5-1.3-2.7-2.8-3c-1.5-0.3-3,0.3-3.8,1.7l-9.5,15.4
			c-2.6-1.1-5-1.9-6.8-1.9c-1.9,0-4.3,0.8-6.8,1.9L7.5,2.8c-0.8-1.3-2.3-2-3.8-1.7C2.1,1.5,1,2.6,0.8,4.1c0,0.3,0,0.4,0,0.5l0,33.7
			c-0.1,1-0.2,9.4,12.7,22.6c0.1,0.1,0.3,0.3,0.4,0.4c0,0,0,0,0,0c0,0,0.1,0.1,0.1,0.1c0,0,0,0,0.1,0c0.2,0.2,5,4.4,9.7,4.5
			c0,0,0,0,0,0c0,0,0,0,0,0h0h0h0h0c0,0,0,0,0,0c0,0,0,0,0,0c4.7,0,9.5-4.3,9.7-4.5c0,0,0,0,0.1,0c0,0,0.1-0.1,0.1-0.1c0,0,0,0,0,0
			c0.1-0.1,0.3-0.3,0.4-0.4C47.1,47.8,47,39.3,46.9,38.3z M39.6,8.8l-1.2,2.3l0,0L34,19.8c-0.3-0.2-0.6-0.3-0.9-0.5L39.6,8.8z
			 M31.7,21.7L31.7,21.7c0.4,0.2,0.7,0.4,1.1,0.6l-1,2c-0.4-0.2-0.9-0.3-1.4-0.5L31.7,21.7z M24.3,39c0,0.1-0.2,0.5-0.5,1.3
			c-0.3-0.8-0.5-1.3-0.5-1.3l-6.2-12.3c0.5-0.2,1-0.4,1.6-0.6l0,0l4,6.4c0.3,0.4,0.7,0.6,1.2,0.6c0.5,0,0.9-0.2,1.2-0.6l4-6.4l0,0
			c0.6,0.2,1.1,0.4,1.6,0.6L24.3,39z M35.1,34.7c2.3,0.4,4.3,2.6,5.5,4.3c0.1,0.1,0.2,0.3,0.3,0.4c-3,1.6-8,1.4-10.4,1
			c-0.4-1.1-0.8-2.2-1.2-3.3C31.3,35.2,33.2,34.3,35.1,34.7z M18.4,37.1c-0.4,1.1-0.8,2.2-1.2,3.3c-2.4,0.3-7.4,0.5-10.4-1
			C6.9,39.2,7,39.1,7.1,39c1.2-1.7,3.2-3.8,5.5-4.3C14.4,34.3,16.4,35.2,18.4,37.1z M21.5,25.5L21.5,25.5c0.7-0.1,1.5-0.2,2.3-0.2
			c0,0,0,0,0,0s0,0,0,0c0.8,0,1.6,0.1,2.3,0.2l0,0l-2.3,3.8l0,0l0,0L21.5,25.5z M23.8,19c1.4,0,3.3,0.6,5.4,1.5l0,0L27.7,23
			c-1.2-0.2-2.5-0.4-3.8-0.4c0,0,0,0,0,0c0,0,0,0,0,0c-1.3,0-2.6,0.2-3.8,0.4l-1.5-2.5l0,0C20.5,19.6,22.4,19,23.8,19z M16,21.7
			L16,21.7l1.3,2.1c-0.5,0.2-1,0.3-1.4,0.5l-1-2C15.2,22.1,15.6,21.9,16,21.7z M14.5,19.4c-0.3,0.2-0.6,0.3-0.9,0.5l-4.4-8.7l0,0
			L8,8.8L14.5,19.4z M3.5,25.9l0-20.2v0l7.7,15.5C8.1,22.9,5.3,24.7,3.5,25.9L3.5,25.9z M3.5,30.2v-0.6c0-0.1,0-0.2,0-0.3
			c2-1.4,5.4-3.6,8.9-5.6l0.9,1.9c-0.8,0.4-1.3,0.8-1.4,0.8l-0.7,0.5c-3.4,2.2-6,4-7.6,5.5C3.6,32.3,3.5,31.1,3.5,30.2z M4.8,37.4
			c-0.1-0.3-0.2-0.5-0.3-0.8c-0.2-0.5,0-1,0.1-1.4C4.8,35,5,34.7,5.1,34.6c0,0,0.1-0.1,0.1-0.1l0,0c0.3-0.3,0.8-0.8,1.4-1.3
			c1.6-1.3,3.7-2.7,6.1-4.2l0.8-0.5c0,0,0.4-0.3,1.1-0.6l2.5,4.9c-1.6-0.8-3.3-1.1-5-0.7C9,32.6,6.5,35.1,4.8,37.4L4.8,37.4z
			 M4.8,44.2c1,0.5,2.4,1.3,3.8,2.5c2.8,2.5,4.4,5.9,4.7,10.1C8.6,51.6,6.1,47.3,4.8,44.2z M10.5,44.7c-1-0.9-2-1.6-2.9-2.1
			c2,0.6,4.2,0.8,6,0.8c1,0,1.9,0,2.7-0.1c-0.8,2.5-1.4,4.7-1.9,6.7C13.2,47.6,11.8,45.9,10.5,44.7z M23.8,63.3
			C23.8,63.3,23.8,63.3,23.8,63.3C23.8,63.3,23.8,63.3,23.8,63.3c-1.6,0-3.4-0.7-4.8-1.6l4.8-1.1l0,0l0,0l4.8,1.1
			C27.2,62.5,25.5,63.3,23.8,63.3z M31.2,59.4C31.2,59.5,31.2,59.5,31.2,59.4l-6.1-1.3c1-0.7,2.2-2.1,2.2-4.2c0,0-0.6-1.5-3.5-1.6
			c-2.9,0-3.5,1.6-3.5,1.6c0,2.1,1.2,3.5,2.2,4.2l-6.1,1.4c0,0,0,0,0-0.1c-0.7-1.7-1-6.5,4-20.1c0,0,1.1,2.2,1.6,4.9
			c0,0.1,0,0.2,0,0.3c0.2,1.3,0.4,3,0.4,4.8c0.4-0.2,0.9-0.2,1.3-0.2c0.4,0,0.9,0.1,1.3,0.2c0-1.8,0.2-3.5,0.4-4.8
			c0-0.1,0-0.2,0-0.3c0.5-2.7,1.6-4.9,1.6-4.9C32.2,52.9,31.9,57.7,31.2,59.4z M33.3,49.9c-0.5-2-1.1-4.2-1.9-6.7
			c0.7,0.1,1.6,0.1,2.7,0.1c1.9,0,4.1-0.2,6-0.8c-0.9,0.5-1.9,1.2-2.9,2.1C35.8,45.9,34.4,47.6,33.3,49.9z M34.3,56.8
			c0.3-4.1,1.8-7.5,4.7-10.1c1.4-1.2,2.8-2,3.8-2.5C41.5,47.3,39,51.6,34.3,56.8z M43.1,36.7c-0.1,0.3-0.2,0.5-0.3,0.8l0,0
			c-1.7-2.3-4.1-4.8-7.2-5.4c-1.7-0.3-3.3-0.1-5,0.7l2.5-4.9c0.7,0.4,1.1,0.6,1.1,0.6L35,29c2.3,1.5,4.5,2.9,6.1,4.2
			c0.6,0.5,1.1,0.9,1.4,1.3l0,0c0,0,0.1,0.1,0.1,0.1c0.1,0.1,0.3,0.4,0.4,0.7C43.1,35.7,43.2,36.2,43.1,36.7z M44.2,30.2
			c0,0.9-0.1,2.1-0.1,2.1c-1.6-1.5-4.2-3.3-7.6-5.5l-0.7-0.5c-0.1,0-0.5-0.4-1.4-0.8l0.9-1.9c3.5,2,6.8,4.2,8.9,5.6
			c0,0.1,0,0.2,0,0.3V30.2z M44.2,25.9c-1.8-1.2-4.6-3.1-7.7-4.8l7.7-15.5v0L44.2,25.9L44.2,25.9z"/>
	</g>
</g>
</svg>
